<?xml version="1.0" standalone="no"?>
<!DOCTYPE svg PUBLIC "-//W3C//DTD SVG 20010904//EN"
 "http://www.w3.org/TR/2001/REC-SVG-20010904/DTD/svg10.dtd">
<svg version="1.0" xmlns="http://www.w3.org/2000/svg"
 width="700.000000pt" height="700.000000pt" viewBox="0 0 700.000000 700.000000"
 preserveAspectRatio="xMidYMid meet">
<metadata>
Created by potrace 1.14, written by Peter Selinger 2001-2017
</metadata>
<g transform="translate(0.000000,700.000000) scale(0.100000,-0.100000)"
fill="#000000" stroke="none">
<path d="M3232 6613 c-16 -3 -21 -10 -18 -21 23 -77 106 -412 106 -426 0 -10
-16 -44 -34 -75 -46 -75 -86 -177 -131 -331 -20 -69 -40 -133 -44 -143 -5 -15
-76 86 -301 428 -161 246 -299 449 -306 452 -18 6 -381 -117 -504 -172 -125
-56 -216 -109 -230 -135 -37 -70 3 -113 534 -579 l268 -236 -33 -25 c-232
-176 -665 -607 -929 -925 -64 -77 -179 -221 -255 -319 -77 -99 -183 -234 -236
-300 -52 -67 -133 -177 -179 -246 -59 -87 -124 -166 -215 -260 -147 -152 -204
-218 -262 -305 -153 -229 -229 -519 -193 -742 28 -169 85 -279 215 -408 215
-215 464 -266 780 -161 122 41 267 112 350 171 57 40 145 128 190 187 l20 27
145 -11 c173 -14 418 0 587 33 243 47 576 181 816 330 44 27 81 48 83 46 2 -2
-23 -176 -56 -388 -200 -1307 -244 -1666 -207 -1697 19 -16 183 -37 417 -54
248 -17 1356 -17 1710 0 747 36 1144 72 1177 105 19 19 32 126 39 312 9 259
-18 613 -71 930 -13 77 -23 141 -22 141 1 1 58 8 127 16 l125 13 11 80 c19
129 34 339 34 460 l0 112 -201 -73 c-110 -41 -206 -74 -212 -74 -7 0 -31 63
-56 146 -35 116 -41 148 -31 154 7 4 117 45 244 91 127 45 232 83 234 84 6 4
-48 444 -63 512 -5 20 -24 12 -289 -123 -156 -79 -287 -144 -292 -144 -10 0
-148 289 -142 295 2 2 145 80 318 175 173 94 319 175 323 179 15 15 -92 408
-110 404 -6 -1 -166 -94 -356 -207 -189 -113 -350 -206 -356 -208 -15 -4 -175
243 -164 252 4 4 178 118 386 255 332 218 377 251 371 269 -13 43 -144 308
-199 401 -50 86 -58 95 -73 83 -9 -7 -168 -154 -352 -327 -184 -173 -347 -326
-362 -340 l-28 -25 -37 45 c-21 24 -91 101 -155 170 l-118 127 364 413 364
414 -52 60 c-82 95 -278 286 -290 282 -6 -2 -163 -203 -349 -448 -186 -244
-341 -447 -345 -451 -4 -4 -32 9 -62 28 -30 20 -104 60 -165 91 -60 30 -111
57 -113 58 -2 2 159 224 357 494 l360 490 -100 66 c-104 68 -349 209 -354 203
-1 -2 -78 -162 -171 -355 -93 -194 -171 -349 -174 -345 -4 4 -14 54 -24 112
-23 143 -74 290 -145 418 -32 59 -75 141 -96 182 l-37 74 26 73 c18 54 22 75
13 78 -41 14 -252 46 -361 55 -126 10 -388 12 -434 3z m618 -283 c34 -37 124
-210 175 -338 80 -202 111 -404 94 -614 -15 -191 -46 -266 -164 -404 -138
-163 -200 -329 -193 -523 3 -90 7 -113 28 -151 84 -151 230 -3 401 405 39 94
73 172 75 174 15 16 219 -82 272 -130 l33 -30 -80 -202 c-265 -669 -565 -1510
-578 -1617 -11 -93 4 -88 372 143 339 212 520 334 835 561 151 109 280 200
287 203 13 5 76 -84 116 -163 l26 -52 -182 -159 c-467 -408 -706 -593 -1023
-789 -158 -97 -637 -374 -641 -370 -2 2 3 45 11 97 15 90 24 185 47 494 18
243 -12 372 -146 637 -103 203 -119 264 -120 453 0 136 3 159 28 245 41 136
44 184 17 248 -26 59 -51 82 -93 82 -93 0 -181 -117 -246 -325 -55 -178 -83
-331 -78 -415 7 -97 29 -155 127 -325 97 -169 134 -263 151 -374 13 -93 7
-267 -14 -384 l-12 -68 -94 -45 c-87 -41 -93 -42 -87 -21 48 163 60 362 31
486 -41 172 -150 309 -318 397 -244 128 -531 148 -788 54 -123 -45 -214 -97
-363 -212 -27 -20 -29 -20 -23 -4 25 64 26 207 2 267 -4 12 13 30 64 68 199
147 418 456 470 661 10 41 33 172 50 290 35 235 61 352 92 417 32 66 172 183
219 183 6 0 10 -43 10 -118 0 -148 18 -328 36 -363 28 -56 105 -99 175 -99 14
0 48 7 77 15 141 42 180 147 258 681 4 27 10 32 59 48 30 9 55 22 55 29 0 7
11 86 24 177 26 174 52 272 94 355 84 167 328 455 384 455 11 0 33 -14 48 -30z
m-2022 -1945 c-4 -52 -13 -87 -36 -135 -25 -53 -176 -264 -289 -404 l-22 -27
-53 15 c-29 8 -70 19 -92 23 l-38 8 88 110 c399 499 416 519 431 499 11 -14
14 -38 11 -89z m3152 -28 c54 -43 200 -206 200 -223 -1 -11 -326 -264 -451
-350 -66 -46 -95 -61 -97 -51 -7 32 262 667 282 667 6 0 36 -19 66 -43z m822
-1233 c26 -49 59 -122 73 -163 l25 -74 -67 -85 c-185 -237 -747 -791 -1089
-1074 -203 -167 -392 -285 -706 -438 -206 -100 -587 -264 -595 -256 -3 2 5 96
18 209 l22 204 246 119 c522 252 601 302 1006 639 160 133 438 413 905 911 52
56 99 101 104 100 5 -1 31 -42 58 -92z m-3259 59 c202 -79 306 -310 307 -684
0 -77 -4 -121 -12 -132 -21 -26 -174 -79 -260 -89 l-27 -3 -5 135 c-5 152 -24
250 -63 322 -32 59 -60 80 -132 102 -138 41 -286 6 -511 -120 l-99 -55 -65 53
c-35 29 -65 57 -65 61 -2 17 162 146 299 237 269 176 478 234 633 173z m-440
-737 c57 -24 105 -98 121 -187 l6 -36 -98 -6 c-55 -3 -138 -3 -186 0 l-87 6 3
91 3 91 54 28 c62 31 131 36 184 13z m4009 -134 c21 -75 38 -143 38 -150 0
-13 -157 -250 -289 -435 -132 -185 -284 -364 -555 -651 -236 -251 -353 -340
-656 -502 l-185 -99 -355 0 c-195 0 -377 4 -405 9 -49 8 -50 9 -27 24 12 8
142 70 288 138 423 196 623 311 766 441 177 161 576 545 724 694 136 139 361
390 558 622 27 32 51 55 54 52 3 -3 23 -67 44 -143z m177 -840 c10 -63 34
-435 48 -743 l6 -136 -24 -6 c-71 -18 -659 -48 -659 -33 0 3 64 96 143 206
140 197 215 322 377 632 46 87 86 155 90 153 5 -3 13 -35 19 -73z"/>
<path d="M3700 5959 c-101 -102 -194 -416 -194 -659 -1 -90 3 -111 22 -147 28
-53 70 -76 142 -77 95 -1 146 46 185 174 26 84 32 330 11 445 -33 178 -81 295
-121 295 -7 0 -28 -14 -45 -31z"/>
<path d="M2678 4338 c-54 -14 -121 -78 -149 -140 -33 -74 -33 -182 0 -256 28
-62 106 -137 159 -152 118 -32 210 14 253 129 26 70 29 187 5 257 -40 122
-158 193 -268 162z"/>
</g>
</svg>
